<svg xmlns="http://www.w3.org/2000/svg" viewBox="0 0 251.71 88.05"><defs><style>.cls-1{fill:#fff;}</style></defs><g id="Layer_2" data-name="Layer 2"><g id="Layer_1-2" data-name="Layer 1"><path class="cls-1" d="M150.21,64.24a14.63,14.63,0,0,1-1.14-3.75c-.19-5-.17-10-.19-15a7.59,7.59,0,0,1,2.4-5.28,2.51,2.51,0,0,1,2.76-.9,2.66,2.66,0,0,1,1.82,2.4,44.73,44.73,0,0,1,.41,4.76c.06,4.39,0,8.78,0,13.18,0,2.94,1.63,4.61,4.58,4.75,1.7.08,3.41,0,5.11,0a6.21,6.21,0,0,0,.89-.14c-1.92-1.49-1.75-3.48-1.8-5.38,0-1.1.08-2.2,0-3.3-.16-4.81-.17-9.63-.6-14.42-.39-4.32-3.85-6.79-8.16-6.3-2.29.26-3.86,1.68-5.23,3.36-.87,1.07-1.62,2.24-2.48,3.44-.13-.49-.22-.87-.33-1.24A7,7,0,0,0,142.59,35c-3-.56-5.26.88-6.85,3.3-1,1.46-1.66,3.07-2.57,4.79V35.52L123,37.66c1.23,2.69,1.14,5.45,1.13,8.21q0,9.23-.06,18.46h9.4c-.11-1.07-.29-2-.3-3,0-3.72,0-7.44,0-11.16a19.2,19.2,0,0,1,1.61-8.06,7.7,7.7,0,0,1,1.46-2.19,1.93,1.93,0,0,1,3.29.67,4,4,0,0,1,.36,1.43c.09,3.61.13,7.22.2,10.83,0,2.55,0,5.11.19,7.65a3.79,3.79,0,0,0,3.57,3.73C146,64.37,148.23,64.24,150.21,64.24Z"/><path class="cls-1" d="M65.41,21.46c.1.38.2.72.26,1.06a33.23,33.23,0,0,1,.71,4.81c.07,10.92.05,21.84,0,32.75a33.81,33.81,0,0,1-.4,3.47c0,.27,0,.53-.07.8h9.88a14.93,14.93,0,0,1-.31-2.06c-.09-4.21-.29-8.43-.14-12.64A31.12,31.12,0,0,1,76.62,43a7.46,7.46,0,0,1,1.58-2.84c1.34-1.57,3.17-1.15,3.7.83a14.65,14.65,0,0,1,.45,3.56c0,4.4,0,8.79,0,13.19a22.31,22.31,0,0,0,.2,3.17,3.55,3.55,0,0,0,3.06,3.24c2.33.27,4.7.27,7.29.39a5.31,5.31,0,0,0-.48-.79,5,5,0,0,1-1.23-3.71c.05-3.76.1-7.52,0-11.28-.07-3.21-.08-6.45-1.2-9.54a6.8,6.8,0,0,0-7.47-4.32,7.53,7.53,0,0,0-4.91,3.79c-.79,1.3-1.41,2.71-2.1,4.07h-.24V19.38Z"/><path class="cls-1" d="M246.48,21.69a5.09,5.09,0,0,0-5.16,4.85,5.15,5.15,0,0,0,5.16,5.55,5,5,0,0,0,5-5.1A5,5,0,0,0,246.48,21.69Z"/><path class="cls-1" d="M33.55,0c2,.22,4,.35,5.9.68,6,1,11.23,3.51,15,8.44a34.53,34.53,0,0,1,6.07,13.6l-15.66,9c-.16-2.14-.26-4-.45-5.91C43.88,20.46,43.7,15,41.61,10a16,16,0,0,0-3-4.92c-3.85-4-9.36-3.54-12.82.85C22.84,9.64,21.45,14,20.34,18.49,18,27.84,17.88,37.38,18.28,46.9a49.14,49.14,0,0,0,5.53,21.2,28,28,0,0,0,7.88,9.61C37.49,82.07,46,82.49,52,75.5a28.17,28.17,0,0,0,5.42-10.24c.52-1.69.84-3.43,1.34-5.12a1.43,1.43,0,0,1,.89-.81,8.27,8.27,0,0,1,1.91,0c-.41,1.9-.74,3.69-1.17,5.46a38.43,38.43,0,0,1-4.7,11.54A23.61,23.61,0,0,1,42,86.59a29.76,29.76,0,0,1-16.57.51A28.69,28.69,0,0,1,10.53,77,45.06,45.06,0,0,1,1.39,56.66,63,63,0,0,1,0,43.69a70.77,70.77,0,0,1,1.86-16A43.41,43.41,0,0,1,8.41,12.6C13.27,5.87,19.65,1.5,28.05.42c1.33-.17,2.67-.28,4-.42Z"/><path class="cls-1" d="M251.71,64.45H242V35.38h6.6c2.38,0,2.38,0,2.38,2.39,0,7.23,0,14.45,0,21.68a37.13,37.13,0,0,0,.67,4.78Z"/><path class="cls-1" d="M150.21,64.24c-2,0-4.18.13-6.36,0a3.79,3.79,0,0,1-3.57-3.73c-.16-2.54-.15-5.1-.19-7.65-.07-3.61-.11-7.22-.2-10.83a4,4,0,0,0-.36-1.43,1.93,1.93,0,0,0-3.29-.67,7.7,7.7,0,0,0-1.46,2.19,19.2,19.2,0,0,0-1.61,8.06c0,3.72,0,7.44,0,11.16,0,1,.19,2,.3,3h-9.4q0-9.24.06-18.46c0-2.76.1-5.52-1.13-8.21l10.16-2.14V43c.91-1.72,1.62-3.33,2.57-4.79,1.59-2.42,3.85-3.86,6.85-3.3a7,7,0,0,1,5.72,5.49c.11.37.2.75.33,1.24.86-1.2,1.61-2.37,2.48-3.44,1.37-1.68,2.94-3.1,5.23-3.36,4.31-.49,7.77,2,8.16,6.3.43,4.79.44,9.61.6,14.42,0,1.1-.07,2.2,0,3.3.05,1.9-.12,3.89,1.8,5.38a6.21,6.21,0,0,1-.89.14c-1.7,0-3.41.07-5.11,0-3-.14-4.56-1.81-4.58-4.75,0-4.4,0-8.79,0-13.18a44.73,44.73,0,0,0-.41-4.76,2.66,2.66,0,0,0-1.82-2.4,2.51,2.51,0,0,0-2.76.9,7.59,7.59,0,0,0-2.4,5.28c0,5,0,10,.19,15A14.63,14.63,0,0,0,150.21,64.24Z"/><path class="cls-1" d="M65.41,21.46l9.9-2.08V42.77h.24c.69-1.36,1.31-2.77,2.1-4.07a7.53,7.53,0,0,1,4.91-3.79A6.8,6.8,0,0,1,90,39.23c1.12,3.09,1.13,6.33,1.2,9.54.08,3.76,0,7.52,0,11.28a5,5,0,0,0,1.23,3.71,5.31,5.31,0,0,1,.48.79c-2.59-.12-5-.12-7.29-.39a3.55,3.55,0,0,1-3.06-3.24,22.31,22.31,0,0,1-.2-3.17c0-4.4,0-8.79,0-13.19A14.65,14.65,0,0,0,81.9,41c-.53-2-2.36-2.4-3.7-.83A7.46,7.46,0,0,0,76.62,43a31.12,31.12,0,0,0-1.26,6.64c-.15,4.21,0,8.43.14,12.64a14.93,14.93,0,0,0,.31,2.06H65.93c0-.27,0-.53.07-.8a33.81,33.81,0,0,0,.4-3.47c0-10.91,0-21.83,0-32.75a33.23,33.23,0,0,0-.71-4.81C65.61,22.18,65.51,21.84,65.41,21.46Z"/><path class="cls-1" d="M169.9,25.13l8.91-2.73a4,4,0,0,1,.85-.07V39.4a14.3,14.3,0,0,0,.85-1.17c2.23-4.11,6.73-4.75,10.5-3.18a9.27,9.27,0,0,1,5.54,6.33,24.77,24.77,0,0,1,0,15.14c-1.29,3.69-3.55,6.61-7.35,8a9.33,9.33,0,0,1-6.76-.17,1.22,1.22,0,0,1-.28-.14c-2.61-1.82-5.38-1.6-8.21-.66-.7.23-1.43.39-2.15.58s-1.11,0-1.05-.8c0-.46,0-.92,0-1.38,0-10.67.05-21.33,0-32A30.29,30.29,0,0,0,169.9,25.13Zm9.79,26.45c0,3,0,6,0,9A2.19,2.19,0,0,0,181,62.79c2.62,1.33,4.58.72,5.91-1.88a12.46,12.46,0,0,0,.64-1.56,33.36,33.36,0,0,0,1-15.84,18.24,18.24,0,0,0-1.74-5.27,2.59,2.59,0,0,0-4-.93,6.16,6.16,0,0,0-3.11,5.35C179.68,45.64,179.69,48.61,179.69,51.58Z"/><path class="cls-1" d="M215.94,47.52c-.27-2.87-.34-5.82-.9-8.68s-3.26-3.63-5.54-1.72-3.24,4.74-3.82,7.63c-.12.6-.25,1.21-.44,2.1-.42-.74-.71-1.21-1-1.7-.92-1.8-1.82-3.6-2.78-5.38a1.1,1.1,0,0,1,.19-1.49,10.92,10.92,0,0,1,6.94-3.34,23.48,23.48,0,0,1,9.57.9c3.89,1.19,5.84,3.65,6,7.94.19,5,.13,10.06.1,15.09,0,2,.17,3.82,1.83,5.53-2.77,0-5.32.42-7.68-.8a4.86,4.86,0,0,1-2.51-3.51c-.07-.35-.15-.69-.26-1.24-.76,1.23-1.39,2.32-2.08,3.37a7.41,7.41,0,0,1-12.12,0c-2.08-3.29-.95-8.29,2.43-10.83,2.13-1.6,4.68-2.15,7.17-2.81C212.57,48.13,214.11,47.9,215.94,47.52Zm0,.77c-2.26,1.05-4.28,1.72-5.36,3.72a8.17,8.17,0,0,0-.6,6,1.81,1.81,0,0,0,.87,1.11c1.86.82,4.37.36,4.65-2.16C215.78,54.17,215.77,51.38,215.92,48.29Z"/><path class="cls-1" d="M120,64.52c-1.89-.11-3.81-.09-5.69-.37-2.65-.4-3.9-2-4.09-4.64,0-.25,0-.49-.08-1l-.58.93-1.74,2.91c-1.94,3.25-5.44,3.5-8.65,2.54-2.87-.85-4.48-3.56-4.35-6.91.18-4.29,2.35-7,7-8.38,2.64-.8,5.34-1.38,8.12-2.09a34,34,0,0,0-.62-9,3,3,0,0,0-2.38-2.32,3.49,3.49,0,0,0-3.53,1.21,15.6,15.6,0,0,0-3.39,7c-.16.67-.23,1.37-.38,2.34-.52-.76-1-1.32-1.32-1.94-.92-1.71-1.78-3.46-2.71-5.17a.91.91,0,0,1,.15-1.21,10.66,10.66,0,0,1,6.59-3.36,20.93,20.93,0,0,1,11.84,1.56,7.19,7.19,0,0,1,4.16,5.79,18.13,18.13,0,0,1,.17,2.33c0,4,0,7.93,0,11.9,0,2.63-.39,5.36,1.71,7.57Zm-10-15.86c-.49,0-.7,0-.9.07-3.65.76-6.4,5.77-4.94,9.19a2.85,2.85,0,0,0,1.67,1.39,3.17,3.17,0,0,0,4.14-3C110.14,53.79,110.05,51.29,110.05,48.66Z"/><path class="cls-1" d="M238.1,64.36c-.55-14.25-.06-28.45-.3-42.85l-9.21,2.79c.18,1.54.42,3,.51,4.48s0,3,0,4.47c-.16,10.36.35,20.73-.33,31.11Z"/><path class="cls-1" d="M246.48,21.69a5,5,0,0,1,5,5.3,5,5,0,0,1-5,5.1,5.15,5.15,0,0,1-5.16-5.55A5.09,5.09,0,0,1,246.48,21.69Z"/></g></g></svg>