<svg xmlns="http://www.w3.org/2000/svg" viewBox="0 0 254.44 87.85"><defs><style>.cls-1{fill:#fff;}.cls-2{fill:#4b6742;}</style></defs><g id="Layer_2" data-name="Layer 2"><g id="Layer_1-2" data-name="Layer 1"><path class="cls-1" d="M146.43,0c1.75.19,3.51.31,5.25.58,2.6.41,5.11,1.12,6.82,3.34,3.27,4.23,2,11.11-2.57,14l-.65.42a32.12,32.12,0,0,1,4.08,2.86c2.06,1.95,2.62,4.56,2.54,7.31-.16,5.63-3.18,9.22-8.81,10.28a35.76,35.76,0,0,1-6.36.6c-11.09,0-22.19,0-33.28,0h-.86V0ZM128.22,29.51c.21,0,.36,0,.5,0,4,0,8.06,0,12.09,0a10.74,10.74,0,0,0,2.38-.33,2.38,2.38,0,0,0,2-2.65c0-1.72-.48-2.6-1.88-3a7.94,7.94,0,0,0-2.1-.34c-4.12-.05-8.24-.07-12.36-.09a4.91,4.91,0,0,0-.59.07Zm0-14.77c4.09,0,8.08,0,12.07,0a10.41,10.41,0,0,0,1.92-.25,1.87,1.87,0,0,0,1.59-1.39c.39-1.69.18-3.57-2.38-3.63-4.33-.12-8.66-.12-13-.16-.05,0-.11,0-.21.09Z"/><path class="cls-1" d="M89.91,0c1.78.19,3.57.33,5.34.57a11.63,11.63,0,0,1,6,2.37,9.28,9.28,0,0,1,3.35,7.35,10.22,10.22,0,0,1-4.83,9.43c-.47.3-1,.53-1.54.83a2.23,2.23,0,0,0,.42.32c2.86,1.18,4,3.46,4.23,6.41q.28,3.93.74,7.85a5.34,5.34,0,0,0,1.4,3.54.63.63,0,0,1,.12.34,1.07,1.07,0,0,1-.06.37h-.88c-5.15,0-10.29,0-15.44,0-.85,0-1.21-.34-1.29-1.06-.21-1.93-.37-3.87-.56-5.81a18.12,18.12,0,0,0-.28-2.2,3.47,3.47,0,0,0-3.6-2.78c-3.64-.1-7.29,0-11,0v11.8H56.28c0-.26-.06-.53-.06-.79V.74c0-.25,0-.49,0-.74ZM72.08,17c.22,0,.4.06.58.06,2.84,0,5.69.05,8.54,0a19.41,19.41,0,0,0,4-.51,2.91,2.91,0,0,0,2.26-3.28,2.83,2.83,0,0,0-2.63-2.85,7.2,7.2,0,0,0-1.28-.19Q78,10.1,72.35,10c-.09,0-.17.05-.27.09Z"/><path class="cls-1" d="M47.33,0a8.27,8.27,0,0,1,.12,1c0,6.4,0,12.81,0,19.22a26,26,0,0,1-1.52,9.56,15,15,0,0,1-10,9,42.5,42.5,0,0,1-16,1.54,31.71,31.71,0,0,1-9.25-1.82C4.92,36.35,1.58,32.09.52,26.05A35.33,35.33,0,0,1,0,20.33C0,13.86,0,7.39,0,.92,0,.61.07.31.1,0H15.53c0,.4.05.8.05,1.2,0,5.78,0,11.57,0,17.35a40.6,40.6,0,0,0,.48,5.71c.44,2.78,2,4.76,4.89,5.19a17.12,17.12,0,0,0,4.79.16c3.46-.46,5-2,5.61-5.44a33,33,0,0,0,.47-5.53c.07-6.21,0-12.43,0-18.64Z"/><path class="cls-1" d="M194.31,86.82c-.34,0-.62,0-.89,0-5.27,0-10.54,0-15.8,0a1.45,1.45,0,0,1-1.31-.65q-7.84-10.42-15.72-20.82c-.2-.27-.41-.52-.75-1V86.77H145.06V48.35h1.08c5.48,0,11,0,16.45,0a1.62,1.62,0,0,1,1.51.79q7.17,10.22,14.38,20.41l.63.85v-22h15.2Z"/><path class="cls-1" d="M254,61.21c-.31,0-.52.06-.73.06-5.24,0-10.47,0-15.71,0a1.32,1.32,0,0,1-1-.48c-2.23-3.56-5.62-4.44-9.49-4.07-6.07.59-9.59,5.23-9.28,11.31a14.6,14.6,0,0,0,.73,4.17c1.27,3.6,4.09,5.42,7.73,6A14.87,14.87,0,0,0,235,77.1a5.67,5.67,0,0,0,3.4-3.73H232v-8.3h22.44V86.86c-2.22,0-4.41,0-6.6,0-.22,0-.5-.32-.63-.55-.49-.89-.93-1.81-1.39-2.72-1.22.69-2.36,1.43-3.57,2a25.52,25.52,0,0,1-8.81,2,57.78,57.78,0,0,1-12.05-.15,29.59,29.59,0,0,1-12.61-4,16.43,16.43,0,0,1-7.63-12A23.17,23.17,0,0,1,202,60.22c1.7-4.86,5.16-8,9.79-10.06a36,36,0,0,1,11.8-2.61,54.63,54.63,0,0,1,14.61.76c4.39.87,8.51,2.38,11.88,5.48a12.14,12.14,0,0,1,3.7,6.4C253.89,60.51,253.91,60.85,254,61.21Z"/><path class="cls-1" d="M65.89,48.39c.39,0,.66,0,.93,0,5.27,0,10.54,0,15.8,0a1,1,0,0,1,1.17.85Q87.74,61.09,91.73,73c.09.28.19.56.36,1,.62-1.75,1.18-3.31,1.73-4.88,2.33-6.64,4.67-13.28,7-19.93a1.09,1.09,0,0,1,1.24-.88c5.18,0,10.35,0,15.53,0h1.07c-.39.85-.71,1.57-1,2.28Q109,68.39,100.38,86.16a1.06,1.06,0,0,1-1.12.71c-4.93,0-9.85,0-14.78,0a1,1,0,0,1-1.09-.61Q74.72,67.56,66,48.86A4.29,4.29,0,0,1,65.89,48.39Z"/><path class="cls-1" d="M43.21,86.81H3V48.4c.32,0,.62,0,.92,0,4.59,0,9.17,0,13.75,0,.87,0,1,.29,1,1.07,0,8.57,0,17.14,0,25.71v1.17H43.21Z"/><path class="cls-1" d="M48.31,48.39H63.82v38.4H48.31Z"/><path class="cls-1" d="M120.62,86.8V48.42h15.61V86.8Z"/><path class="cls-2" d="M247.21,0a3.6,3.6,0,0,1-.37.41C240.4,5.93,234,11.53,227.5,16.93a17.29,17.29,0,0,1-12.87,4,10.48,10.48,0,0,1-7.48-3.79Q200.42,9,193.71.7a5.4,5.4,0,0,1-.42-.7h15.43q2.7,3.35,5.41,6.7c2.46,3,5.08,3.35,8.16.91,1.62-1.28,3-2.8,2.85-5A13.27,13.27,0,0,0,224.52,0Z"/><path class="cls-2" d="M170,39.3c0-.38-.05-.71-.05-1,0-7,0-13.92,0-20.89a1.87,1.87,0,0,1,.73-1.58q8.35-7,16.66-14.12l.69-.54L219.47,39.3Z"/><path class="cls-2" d="M254.41,36.6l-2-2.4c-1.75-2.16-3.48-4.34-5.26-6.48-1.92-2.32-4.08-3-6.48-2.1s-4.6,3.54-4.44,5.94a7.46,7.46,0,0,0,1,3.19,37.8,37.8,0,0,0,2.83,3.67l.7.92h-1c-4.58,0-9.16,0-13.75,0a1.58,1.58,0,0,1-1.41-.64c-2-2.54-4.08-5.05-6.15-7.59a2.1,2.1,0,0,1,.3-.38c5.35-4.61,10.64-9.27,16.07-13.78a17.91,17.91,0,0,1,12.44-4.28,11.62,11.62,0,0,1,6.26,2.05,1.63,1.63,0,0,1,.81,1.52c0,6.43,0,12.87,0,19.3Z"/><path class="cls-2" d="M251.14,6.82a1.58,1.58,0,0,1-1.59,1.57,1.34,1.34,0,0,1-1.36-1.33,1.7,1.7,0,0,1,1.66-1.63A1.29,1.29,0,0,1,251.14,6.82Z"/></g></g></svg>