<svg xmlns="http://www.w3.org/2000/svg" viewBox="0 0 257 74.55"><defs><style>.cls-1{fill:#f47f5a;}.cls-2{fill:#f5f5f5;}.cls-3{fill:#ededed;}.cls-4{fill:#eeeded;}</style></defs><g id="Layer_2" data-name="Layer 2"><g id="Layer_1-2" data-name="Layer 1"><path class="cls-1" d="M183.94,0a1.94,1.94,0,0,0,.7.39,8.15,8.15,0,0,1,4.43,10.22,8.25,8.25,0,0,1-8.26,5.48A8.5,8.5,0,0,1,176,14.18a8.23,8.23,0,0,1-.69-11.95A8.53,8.53,0,0,1,178.05.35c.2-.09.44-.13.56-.35Z"/><path class="cls-2" d="M0,20.33H.12a1.61,1.61,0,0,1,.2,1.13q0,13,0,25.94c0,2,0,4,0,6,0,.5.29,1-.07,1.5-.24-.14,0-.47-.25-.62Z"/><path class="cls-3" d="M.25,54.91C0,49.14.17,43.37.13,37.6s0-11.51,0-17.27H16.25c.78,0,.74,0,.74.74q0,14.12,0,28.25a8.82,8.82,0,0,0,.81,3.83,7.5,7.5,0,0,0,5.72,4.51,9.6,9.6,0,0,0,2.14.22,9.45,9.45,0,0,0,4.74-1.37A7.14,7.14,0,0,0,33.11,53a11.93,11.93,0,0,0,.75-4.35V20.88c0-.54,0-.55.56-.55H50.29c.55,0,.55,0,.56.55,0,.12,0,.25,0,.37V72.06c0,1.08.12.92-1,1-7.87.25-15.74.06-23.61.12-.43,0-.84.16-1.28.13-1.62-.08-3.24-.12-4.86-.36a25,25,0,0,1-4.91-1.13,27.61,27.61,0,0,1-7.37-4C7.09,67.24,6.4,66.59,5.7,66a17,17,0,0,1-1.6-1.87A18.76,18.76,0,0,1,2,60.94,14.93,14.93,0,0,1,.5,56.74,6.31,6.31,0,0,1,.25,54.91Z"/><path class="cls-4" d="M78.39,28.22a1.4,1.4,0,0,0,.61-.71,6.15,6.15,0,0,1,1-1.31c.36-.36.64-.8,1-1.15a18.19,18.19,0,0,1,2-1.73,20.61,20.61,0,0,1,8.07-3.69,10.52,10.52,0,0,1,2.44-.3,7.06,7.06,0,0,0,.91-.11c.28,0,.44.07.42.38,0,.12,0,.25,0,.37V34.72a1.92,1.92,0,0,0,0,.24c0,.33-.11.46-.43.54a17.8,17.8,0,0,0-5.78,2.58,11.94,11.94,0,0,0-2.13,1.68c-.48.51-1,1-1.49,1.46a24.36,24.36,0,0,0-3.21,4.29A26,26,0,0,0,79,52.64a18.54,18.54,0,0,0-.59,4.63c0,4.92,0,9.83,0,14.75v.37c0,.61,0,.62-.62.62H61.84c-.2,0-.31-.09-.31-.3s0-.29,0-.43V21.16c0-.1,0-.2,0-.31,0-.29.11-.42.4-.4.12,0,.25,0,.37,0H78c.28,0,.41.15.41.43v7.33Z"/><path class="cls-4" d="M173,46.61V21.14c0-.87-.07-.81.79-.81,1.06,0,2.11,0,3.17,0,2.78.12,5.57.05,8.35.14,1.24.05,2.47.06,3.71.1.46,0,.46,0,.47.51,0,.12,0,.24,0,.37q0,25.34,0,50.69c0,.94.1.86-.87.86H173.71c-.68,0-.68,0-.68-.68Z"/><path class="cls-3" d="M162.48,46.52a19.86,19.86,0,0,1-.21-2.89c-.15-1.18-.31-2.35-.54-3.52a29.08,29.08,0,0,0-1.38-4.73A31.23,31.23,0,0,0,158,30.76,24.7,24.7,0,0,0,154.35,26a25.88,25.88,0,0,0-2.25-1.92,20.94,20.94,0,0,0-3.47-2.24,22.66,22.66,0,0,0-6-2.1,40.57,40.57,0,0,0-5.38-.57c-.55,0-1.06.14-1.6.12a16.11,16.11,0,0,0-3.53.46A17.08,17.08,0,0,0,124,24c-.4.4-.79.8-1.19,1.18-.09.09-.16.26-.37.18V0H105.68V72.2c0,.87-.07.81.79.81,6.53-.05,13,.1,19.58-.12,4.35-.14,8.71.21,13.06-.24,1-.11,2.08-.23,3.1-.44a26.52,26.52,0,0,0,5.36-1.63,27.1,27.1,0,0,0,4.51-2.41A18,18,0,0,0,155.79,65c.55-.69,1.16-1.33,1.69-2A23.84,23.84,0,0,0,161,56.16c.23-.7.41-1.42.6-2.14a18.42,18.42,0,0,0,.39-2c.09-.73.17-1.46.28-2.19.15-1.07,0-2.15.2-3.2A.24.24,0,0,0,162.48,46.52Zm-17.14,2.09a12,12,0,0,1-1,3.37,6.61,6.61,0,0,1-1.31,2.07c-.29.29-.51.64-.8.94a10.1,10.1,0,0,1-5.35,2.77,13.77,13.77,0,0,1-3.62.24,11.38,11.38,0,0,1-4.17-1,9.86,9.86,0,0,1-2.87-1.89,10.7,10.7,0,0,1-2.76-4.75,13.16,13.16,0,0,1-.44-4.58,11,11,0,0,1,2.13-6,10.24,10.24,0,0,1,6.25-3.9,9.7,9.7,0,0,1,2.72-.23A11.07,11.07,0,0,1,138,36a10.65,10.65,0,0,1,6.66,6.16,10.75,10.75,0,0,1,.73,3.54c0,.35.11.72.08,1C145.37,47.38,145.42,48,145.34,48.61Z"/><path class="cls-3" d="M249.7,20.6c-2.78-.15-5.57,0-8.35-.14-.91-.06-.84-.09-.85.82,0,.48,0,1,0,1.45a1.76,1.76,0,0,1-.74-.35,23.8,23.8,0,0,0-2.28-1.46,24.46,24.46,0,0,0-6.92-2.38,21,21,0,0,0-3.25-.28,22.1,22.1,0,0,0-3.13.19c-.89.11-1.79.21-2.67.4a22.88,22.88,0,0,0-3.39.91,26.34,26.34,0,0,0-4,1.86,25.62,25.62,0,0,0-4.6,3.41A23.89,23.89,0,0,0,206.72,28a31.69,31.69,0,0,0-2.92,4.49c-.28.55-.51,1.13-.79,1.67a17.71,17.71,0,0,0-1.44,3.67,32,32,0,0,0-1.16,5.91c-.07.94-.15,1.88-.21,2.82a18.67,18.67,0,0,0,.09,2,35.12,35.12,0,0,0,.38,3.54,32.87,32.87,0,0,0,1.38,5.55c.4,1.16,1,2.22,1.47,3.33a23.05,23.05,0,0,0,1.38,2.41,21.36,21.36,0,0,0,2.27,3.07A29.57,29.57,0,0,0,211,69.84a21.07,21.07,0,0,0,4.53,2.61,18.13,18.13,0,0,0,2.79,1,19.62,19.62,0,0,1,2.13.56,21.76,21.76,0,0,0,9.8,0,17.15,17.15,0,0,0,9.86-5.54c0,1.34,0,2.53,0,3.71,0,.9.1,1,1,1h15.17A1,1,0,0,0,257,73V20.7C254.57,20.63,252.14,20.74,249.7,20.6ZM237.89,53.2a14.61,14.61,0,0,1-1.26,1.67,9.52,9.52,0,0,1-2.33,1.71,10.13,10.13,0,0,1-3.6,1.27,12.94,12.94,0,0,1-3.93.06,15.08,15.08,0,0,1-3.33-.85,8,8,0,0,1-2.36-1.44,10.77,10.77,0,0,1-2.73-3.48,10.65,10.65,0,0,1-1-4.15,11,11,0,0,1-.12-1.29,14,14,0,0,1,1.35-5.65,10,10,0,0,1,1.27-1.81A9.43,9.43,0,0,1,225.05,36l1.14-.26a9.71,9.71,0,0,1,2.22-.12,10.65,10.65,0,0,1,5.38,1.11A10.2,10.2,0,0,1,239,42.57a11.57,11.57,0,0,1,.57,2.82,13.87,13.87,0,0,1,.1,2A11.42,11.42,0,0,1,237.89,53.2Z"/></g></g></svg>