<svg width="80" height="18" viewBox="0 0 80 18" fill="none" xmlns="http://www.w3.org/2000/svg">
<path d="M31.9828 18.0019C31.9579 17.8821 31.9414 17.7608 31.9335 17.6387C31.931 11.8781 31.931 6.1177 31.9335 0.357512V0.00997581H32.2961C34.7996 0.00997581 37.3037 0.00184997 39.8078 0.0137262C41.0299 0.0199769 42.2377 0.171243 43.3593 0.692547C45.4377 1.66015 46.5431 3.30844 46.686 5.59306C46.7553 6.71005 46.6729 7.81704 46.2529 8.8684C45.6206 10.4486 44.4809 11.468 42.82 11.8881C42.7033 11.9175 42.5878 11.9506 42.3637 12.0131C42.8331 12.5257 43.2326 13.0132 43.6913 13.437C43.8686 13.6014 44.1775 13.6802 44.4322 13.6933C45.1263 13.7283 45.8234 13.7083 46.5194 13.7102H46.8857V18.0019H44.5764C44.4238 17.9779 44.27 17.9622 44.1157 17.955C42.5217 17.9625 41.2396 17.313 40.2522 16.0885C39.2885 14.894 38.3561 13.6751 37.4042 12.4713C37.3343 12.3831 37.2238 12.2838 37.124 12.2719C36.8481 12.2444 36.5672 12.2619 36.2502 12.2619V12.6538C36.2502 14.3027 36.2502 15.9514 36.2502 17.5999C36.2502 17.7337 36.2327 17.8675 36.2233 18.0019H31.9828ZM36.2708 7.77203C36.3107 7.79141 36.3294 7.80829 36.3475 7.80829C37.926 7.80204 39.5051 7.81329 41.083 7.77016C41.3645 7.76266 41.6996 7.59202 41.9062 7.39012C42.4393 6.86944 42.4861 6.19437 42.3051 5.50742C42.1447 4.90111 41.6553 4.64858 41.1005 4.50732C40.9072 4.46718 40.7097 4.4508 40.5125 4.45856C39.2136 4.45419 37.9154 4.45856 36.6165 4.45856H36.2708V7.77203Z" fill="black"/>
<path d="M15.7109 18.0019V0.0256374C15.8414 0.0193867 15.9425 0.0106358 16.0436 0.0106358C18.5677 0.0106358 21.0924 -0.00249057 23.6165 0.0156363C24.9447 0.0250123 26.2504 0.208781 27.4432 0.845723C29.2232 1.79582 30.2294 3.27598 30.4279 5.29181C30.5308 6.33442 30.4847 7.36703 30.1838 8.37463C29.6364 10.2098 28.453 11.4049 26.5806 11.89C26.4714 11.9181 26.3621 11.9488 26.2061 11.9913C26.6211 12.5907 26.9944 13.197 27.6242 13.5539C27.8439 13.6789 28.141 13.6996 28.4037 13.7064C29.1402 13.7258 29.8767 13.7133 30.6307 13.7133C30.6474 13.7859 30.6587 13.8597 30.6644 13.934C30.6644 15.2003 30.6644 16.4665 30.6644 17.7325C30.6554 17.8233 30.6378 17.9131 30.612 18.0006H28.3026C28.2027 17.9775 28.101 17.9629 27.9987 17.9569C26.2685 17.9913 24.9203 17.2562 23.8724 15.916C22.9736 14.7647 22.074 13.6135 21.1735 12.4626C21.1111 12.3857 21.0294 12.2782 20.9501 12.275C20.6461 12.2525 20.3397 12.2657 20.0139 12.2657V18.0019H15.7109ZM20.0351 4.45297V7.78957C20.11 7.80246 20.1857 7.81102 20.2616 7.8152C21.6523 7.8152 23.0429 7.8152 24.4335 7.8152C24.6202 7.81721 24.8065 7.79834 24.989 7.75894C25.7155 7.5883 26.1193 7.04199 26.158 6.20066C26.1967 5.35932 25.8397 4.79926 25.0689 4.56299C24.8199 4.4925 24.5624 4.45737 24.3037 4.4586C23.4629 4.4461 22.6222 4.4536 21.7815 4.4536L20.0351 4.45297Z" fill="#171717"/>
<path d="M48.1924 18.0019C48.1843 17.8568 48.1699 17.7124 48.1699 17.5643C48.1699 11.8462 48.1699 6.12791 48.1699 0.409396V0.00997951H48.5444C50.7745 0.00997951 53.0084 -2.1528e-05 55.2416 0.01498C56.4081 0.024356 57.5547 0.15937 58.6582 0.596291C61.4544 1.70328 61.7315 4.38731 61.083 6.2075C60.9463 6.59192 60.7229 6.94508 60.5213 7.34637C61.2204 7.78954 61.7752 8.43773 62.1809 9.20969C63.086 10.9342 63.2083 12.7469 62.6316 14.5784C62.1503 16.1079 61 17.0118 59.5108 17.5056C58.6521 17.7906 57.7546 17.9409 56.85 17.9512C56.6865 17.9512 56.5223 17.9831 56.3588 18L48.1924 18.0019ZM52.5028 13.9827C53.8216 13.9827 55.1086 13.9939 56.395 13.9746C56.726 13.9682 57.0539 13.9108 57.3675 13.8045C58.2562 13.5039 58.7088 12.6169 58.5315 11.5893C58.3711 10.6648 57.7725 10.1842 56.7764 10.1835C55.4682 10.1835 54.1599 10.1835 52.8517 10.1835H52.5028V13.9827ZM52.5028 6.08124C53.7723 6.08124 55.025 6.09186 56.2771 6.07374C56.5617 6.06936 56.7645 5.87184 56.8806 5.59869C57.1577 4.94799 56.84 4.2523 56.1591 4.07353C55.9175 4.01232 55.6693 3.98083 55.4201 3.97977C54.5269 3.96914 53.6331 3.97539 52.74 3.97664C52.6613 3.97664 52.5827 3.99227 52.5028 4.0004V6.08124Z" fill="black"/>
<path d="M64.2773 18.0019C64.2528 17.8819 64.2366 17.7603 64.2286 17.6381C64.2249 16.4342 64.2286 15.2303 64.2218 14.0265C64.2172 13.9301 64.2337 13.834 64.2703 13.7448C64.3068 13.6556 64.3625 13.5755 64.4334 13.5102C67.3765 10.5515 70.317 7.58893 73.2551 4.62237C73.354 4.53391 73.4582 4.45166 73.5672 4.37609L73.5048 4.27858H63.9746V0.0306396H79.928C79.9348 0.141901 79.9467 0.250663 79.9467 0.360049C79.9467 1.56392 79.943 2.7678 79.9523 3.97167C79.9559 4.06829 79.9381 4.1645 79.9002 4.25343C79.8624 4.34236 79.8053 4.42181 79.7332 4.4861C76.7373 7.46641 73.7439 10.4494 70.7529 13.4352C70.6818 13.5064 70.6144 13.582 70.4964 13.7064H79.9174C79.9314 13.7779 79.9412 13.8501 79.9467 13.9227C79.9467 15.2203 79.9467 16.5178 79.9467 17.815C79.9436 17.8779 79.9367 17.9405 79.9261 18.0025L64.2773 18.0019Z" fill="black"/>
<path d="M-0.000704817 0H4.32468V0.445671C4.32468 3.69601 4.32614 6.94426 4.32905 10.1904C4.32695 10.6465 4.36349 11.1019 4.43828 11.5518C4.60493 12.5057 5.15044 13.1489 6.11101 13.3901C6.87859 13.59 7.6842 13.5922 8.45284 13.3964C9.21992 13.1983 9.74546 12.7157 9.91273 11.9394C10.0333 11.3833 10.096 10.8163 10.1 10.2473C10.1175 6.97823 10.1087 3.70976 10.1087 0.440671V0.0393791H14.3935C14.4107 0.102761 14.4218 0.167649 14.4266 0.233149C14.4191 3.84415 14.4435 7.4564 14.3854 11.0668C14.358 12.7545 13.8736 14.3377 12.8088 15.6991C11.8495 16.9261 10.5525 17.56 9.04828 17.8094C8.48654 17.9025 7.91856 17.9381 7.3537 18H6.91679C6.5785 17.9581 6.24021 17.9194 5.90254 17.875C4.68045 17.7125 3.5395 17.3387 2.56457 16.5536C1.29629 15.5329 0.585376 14.1784 0.255198 12.6157C0.135361 12.0531 0.0816835 11.4737 -0.00195312 10.9018L-0.000704817 0Z" fill="black"/>
</svg>
