<svg width="80" height="26" viewBox="0 0 990 309" fill="none" xmlns="http://www.w3.org/2000/svg">
<path d="M305.039 119.37V86.5147H236.078V302.711H305.039V237.93C305.039 211.738 324.465 159.278 373.148 147.809V81.4004C347.607 81.4004 320.363 95.0386 305.039 119.37Z" fill="#eeeeee"/>
<path fill-rule="evenodd" clip-rule="evenodd" d="M564.164 194.847C564.164 167.958 546.672 148.353 518.19 148.353C492.185 148.353 472.216 165.865 472.216 194.847C472.216 223.44 492.262 240.876 518.19 240.876C546.749 240.876 564.164 221.271 564.164 194.847ZM634.053 194.847C634.053 251.569 599.302 302.015 520.667 302.015C483.748 302.015 457.82 302.712 400.702 302.712V2.43945H469.662V107.826C482.433 92.4826 501.627 81.4016 530.573 81.4016C597.831 81.4016 634.053 138.124 634.053 194.847Z" fill="#eeeeee"/>
<path d="M138.946 85.8174V203.059C138.946 227.004 124.86 240.255 104.35 240.255C85.5421 240.255 69.7532 227.856 69.7532 203.059V85.8174H0.560547V221.812C0.560547 265.439 45.0636 303.564 99.3187 303.254L208.603 302.634V85.8174H138.946Z" fill="#eeeeee"/>
<path fill-rule="evenodd" clip-rule="evenodd" d="M872.048 240.876C898.053 240.876 918.021 223.363 918.021 194.847C918.021 165.866 897.976 148.353 872.048 148.353C843.488 148.353 826.074 167.958 826.074 194.847C826.074 221.271 843.488 240.876 872.048 240.876ZM867.559 77.2949C934.662 77.2949 989.613 164.316 989.613 218.404V302.635H920.653V281.713C907.883 297.056 888.688 308.137 859.742 308.137C792.484 308.137 756.262 251.414 756.262 194.692C756.185 138.124 795.502 77.2949 867.559 77.2949Z" fill="#eeeeee"/>
<path d="M921.891 302.635L989.613 302.712L989.535 87.6005L921.891 86.5156V302.635Z" fill="#eeeeee"/>
<path d="M661.064 302.48L728.709 302.634L728.631 86.9804L661.064 85.6631V302.48Z" fill="#eeeeee"/>
<path d="M694.886 68.5366C674.221 66.5994 662.999 55.2859 661.064 34.6736C662.999 13.9838 674.221 2.74779 694.886 0.810547C715.474 2.74779 726.774 14.0613 728.709 34.6736C726.774 55.3634 715.474 66.5994 694.886 68.5366Z" fill="#eeeeee"/>
</svg>
