<svg width="84" height="84" viewBox="0 0 84 84" fill="none" xmlns="http://www.w3.org/2000/svg">
<circle cx="42" cy="42" r="41.5" transform="matrix(-4.37114e-08 1 1 4.37114e-08 0 0)" stroke="black"/>
<path d="M34.0127 31.3675L50.9227 29.7082C51.2368 29.6842 51.5403 29.7227 51.8159 29.8215C52.3729 30.0071 52.7894 30.4236 52.975 30.9806C53.0738 31.2562 53.1123 31.5597 53.0883 31.8738L51.429 48.7838C51.3981 49.0992 51.3053 49.4175 51.1561 49.7207C51.0068 50.0238 50.804 50.3059 50.5591 50.5508C50.0646 51.0453 49.429 51.3582 48.7922 51.4207C48.1553 51.4832 47.5694 51.2901 47.1633 50.884C46.7571 50.4778 46.5641 49.8919 46.6266 49.2551L47.7369 38.1097L33.6429 52.2038C33.1504 52.6963 32.5174 53.0079 31.8831 53.0701C31.2489 53.1324 30.6653 52.9401 30.2609 52.5356C29.8564 52.1312 29.6641 51.5476 29.7264 50.9134C29.7886 50.2791 30.1002 49.6461 30.5927 49.1536L44.6868 35.0596L33.5414 36.1699C33.2256 36.2022 32.9188 36.1717 32.6387 36.0801C32.3586 35.9885 32.1107 35.8377 31.9094 35.6364C31.708 35.4351 31.5572 35.1872 31.4657 34.9071C31.3741 34.627 31.3436 34.3201 31.3758 34.0043C31.4055 33.6888 31.4974 33.3699 31.6463 33.0662C31.7952 32.7625 31.998 32.4799 32.2431 32.2348C32.4883 31.9897 32.7708 31.7868 33.0746 31.6379C33.3783 31.4891 33.6971 31.3972 34.0127 31.3675Z" fill="black"/>
</svg>
